{"asset":{"generator":"Khronos glTF Blender I/O v3.2.43","version":"2.0"},"extensionsUsed":["KHR_materials_transmission"],"scene":0,"scenes":[{"name":"Scene","nodes":[2]}],"nodes":[{"mesh":0,"name":"Cylinder","scale":[1.3328300714492798,1.3328300714492798,1.3328300714492798],"translation":[-0.003234054194763303,0.040861088782548904,-0.0008738301694393158]},{"mesh":1,"name":"Liquid","scale":[0.11821849644184113,0.0864163264632225,0.1119329184293747],"translation":[-0.003234054194763303,0.040861088782548904,-0.0008738301694393158]},{"children":[0,1],"mesh":2,"name":"Circle","scale":[0.7502831220626831,0.7502831220626831,0.7502831220626831],"translation":[0.002426456194370985,0.04476134479045868,0.003119170665740967]}],"materials":[{"doubleSided":true,"extensions":{"KHR_materials_transmission":{"transmissionFactor":1}},"name":"Glass","pbrMetallicRoughness":{"metallicFactor":0,"roughnessFactor":0}},{"doubleSided":true,"extensions":{"KHR_materials_transmission":{"transmissionFactor":1}},"name":"Coffee","pbrMetallicRoughness":{"metallicFactor":0,"roughnessFactor":0}},{"doubleSided":true,"extensions":{"KHR_materials_transmission":{"transmissionFactor":1}},"name":"Material.003","pbrMetallicRoughness":{"metallicFactor":0,"roughnessFactor":0}}],"meshes":[{"name":"Mesh","primitives":[{"attributes":{"POSITION":0,"NORMAL":1,"TANGENT":2,"TEXCOORD_0":3},"indices":4,"material":0}]},{"name":"Mesh","primitives":[{"attributes":{"POSITION":5,"NORMAL":6,"TANGENT":7,"TEXCOORD_0":8},"indices":9,"material":1}]},{"name":"Mesh","primitives":[{"attributes":{"POSITION":10,"NORMAL":11,"TANGENT":12,"TEXCOORD_0":13},"indices":14,"material":2}]}],"accessors":[{"bufferView":0,"componentType":5126,"count":12549,"max":[0.08654946833848953,0.0609419122338295,0.08201728761196136],"min":[-0.08657818287611008,-0.05341087654232979,-0.12809880077838898],"type":"VEC3"},{"bufferView":1,"componentType":5126,"count":12549,"type":"VEC3"},{"bufferView":2,"componentType":5126,"count":12549,"type":"VEC4"},{"bufferView":3,"componentType":5126,"count":12549,"type":"VEC2"},{"bufferView":4,"componentType":5123,"count":63168,"type":"SCALAR"},{"bufferView":5,"componentType":5126,"count":6224,"max":[0.8883689045906067,0.4031250774860382,0.8877087235450745],"min":[-0.8884968757629395,-0.8269327282905579,-0.8906942009925842],"type":"VEC3"},{"bufferView":6,"componentType":5126,"count":6224,"type":"VEC3"},{"bufferView":7,"componentType":5126,"count":6224,"type":"VEC4"},{"bufferView":8,"componentType":5126,"count":6224,"type":"VEC2"},{"bufferView":9,"componentType":5123,"count":26112,"type":"SCALAR"},{"bufferView":10,"componentType":5126,"count":4235,"max":[0.1557302176952362,-0.017189012840390205,0.1557302176952362],"min":[-0.1557302176952362,-0.035953786224126816,-0.1557302325963974],"type":"VEC3"},{"bufferView":11,"componentType":5126,"count":4235,"type":"VEC3"},{"bufferView":12,"componentType":5126,"count":4235,"type":"VEC4"},{"bufferView":13,"componentType":5126,"count":4235,"type":"VEC2"},{"bufferView":14,"componentType":5123,"count":22272,"type":"SCALAR"}],"bufferViews":[{"buffer":0,"byteLength":150588,"byteOffset":0},{"buffer":0,"byteLength":150588,"byteOffset":150588},{"buffer":0,"byteLength":200784,"byteOffset":301176},{"buffer":0,"byteLength":100392,"byteOffset":501960},{"buffer":0,"byteLength":126336,"byteOffset":602352},{"buffer":0,"byteLength":74688,"byteOffset":728688},{"buffer":0,"byteLength":74688,"byteOffset":803376},{"buffer":0,"byteLength":99584,"byteOffset":878064},{"buffer":0,"byteLength":49792,"byteOffset":977648},{"buffer":0,"byteLength":52224,"byteOffset":1027440},{"buffer":0,"byteLength":50820,"byteOffset":1079664},{"buffer":0,"byteLength":50820,"byteOffset":1130484},{"buffer":0,"byteLength":67760,"byteOffset":1181304},{"buffer":0,"byteLength":33880,"byteOffset":1249064},{"buffer":0,"byteLength":44544,"byteOffset":1282944}],"buffers":[{"byteLength":1327488,"uri":"data:application/octet-stream;base64,"}]}